HIERARCHY
ROOT Hips
{
	OFFSET	0.00	0.00	0.00
	CHANNELS 6 Xposition Yposition Zposition Zrotation Xrotation Yrotation
	JOINT LeftUpLeg
	{
		OFFSET	 0.126116	-0.014019	-0.065224
		CHANNELS 3 Zrotation Xrotation Yrotation
		JOINT LeftLeg
		{
			OFFSET	 0.000000	 0.000000	 0.569914
			CHANNELS 3 Zrotation Xrotation Yrotation
			JOINT LeftFoot
			{
				OFFSET	 0.000000	 0.000000	 0.544423
				CHANNELS 3 Zrotation Xrotation Yrotation
				JOINT LeftToeBase
				{
					OFFSET	 0.000000	 0.000000	 0.207117
					CHANNELS 3 Zrotation Xrotation Yrotation
					End Site
					{
						OFFSET	 0.000000	 0.000000	 0.207117
					}
				}
			}
		}
	}
	JOINT RightUpLeg
	{
		OFFSET	-0.124023	-0.008373	-0.065224
		CHANNELS 3 Zrotation Xrotation Yrotation
		JOINT RightLeg
		{
			OFFSET	 0.000000	 0.000000	 0.570047
			CHANNELS 3 Zrotation Xrotation Yrotation
			JOINT RightFoot
			{
				OFFSET	 0.000000	 0.000000	 0.544354
				CHANNELS 3 Zrotation Xrotation Yrotation
				JOINT RightToeBase
				{
					OFFSET	 0.000000	 0.000000	 0.207540
					CHANNELS 3 Zrotation Xrotation Yrotation
					End Site
					{
						OFFSET	 0.000000	 0.000000	 0.207540
					}
				}
			}
		}
	}
	JOINT Spine
	{
		OFFSET	 0.000184	-0.007763	 0.117403
		CHANNELS 3 Zrotation Xrotation Yrotation
		JOINT Spine1
		{
			OFFSET	 0.000000	 0.000000	 0.137269
			CHANNELS 3 Zrotation Xrotation Yrotation
			JOINT Spine2
			{
				OFFSET	 0.000000	 0.000000	 0.156879
				CHANNELS 3 Zrotation Xrotation Yrotation
				JOINT LeftShoulder
				{
					OFFSET	 0.080501	-0.002496	 0.160144
					CHANNELS 3 Zrotation Xrotation Yrotation
					JOINT LeftArm
					{
						OFFSET	 0.000000	 0.000000	 0.164363
						CHANNELS 3 Zrotation Xrotation Yrotation
						JOINT LeftForeArm
						{
							OFFSET	 0.000000	 0.000000	 0.364576
							CHANNELS 3 Zrotation Xrotation Yrotation
							JOINT LeftHand
							{
								OFFSET	 0.000000	 0.000000	 0.360812
								CHANNELS 3 Zrotation Xrotation Yrotation
								JOINT LeftHandIndex1
								{
									OFFSET	 0.000000	 0.000000	 0.086006
									CHANNELS 3 Zrotation Xrotation Yrotation
									JOINT LeftHandIndex2
									{
										OFFSET	 0.000000	 0.000000	 0.047236
										CHANNELS 3 Zrotation Xrotation Yrotation
										JOINT LeftHandIndex3
										{
											OFFSET	-0.004284	-0.000551	 0.038166
											CHANNELS 3 Zrotation Xrotation Yrotation
											End Site
											{
												OFFSET	-0.004284	-0.000551	 0.038166
											}
										}
									}
								}
							}
						}
					}
				}
				JOINT Neck
				{
					OFFSET	 0.000000	 0.000000	 0.176489
					CHANNELS 3 Zrotation Xrotation Yrotation
					JOINT Head
					{
						OFFSET	 0.000000	-0.001747	 0.077940
						CHANNELS 3 Zrotation Xrotation Yrotation
						End Site
						{
							OFFSET	 0.000000	-0.001747	 0.077940
						}
					}
				}
				JOINT RightShoulder
				{
					OFFSET	-0.080363	 0.000306	 0.159706
					CHANNELS 3 Zrotation Xrotation Yrotation
					JOINT RightArm
					{
						OFFSET	 0.000000	 0.000000	 0.164196
						CHANNELS 3 Zrotation Xrotation Yrotation
						JOINT RightForeArm
						{
							OFFSET	 0.000000	 0.000000	 0.365611
							CHANNELS 3 Zrotation Xrotation Yrotation
							JOINT RightHand
							{
								OFFSET	 0.000000	 0.000000	 0.360648
								CHANNELS 3 Zrotation Xrotation Yrotation
								JOINT RightHandIndex1
								{
									OFFSET	 0.000000	 0.000000	 0.069977
									CHANNELS 3 Zrotation Xrotation Yrotation
									JOINT RightHandIndex2
									{
										OFFSET	 0.000000	 0.000000	 0.052305
										CHANNELS 3 Zrotation Xrotation Yrotation
										JOINT RightHandIndex3
										{
											OFFSET	 0.009002	-0.000782	 0.042196
											CHANNELS 3 Zrotation Xrotation Yrotation
											End Site
											{
												OFFSET	 0.009002	-0.000782	 0.042196
											}
										}
									}
								}
							}
						}
					}
				}
			}
		}
	}
}
MOTION
Frames:    10
Frame Time: 0.03333334
-4.908583	-17.011920	 0.054408	-40.355230	 0.840263	 0.542585	 2.105787	-33.639890	 172.342700	-6.153826	-68.359950	-6.710883	 177.163300	 86.784780	 179.943300	-2.325879	 37.316430	-0.205891	-0.271011	-35.240410	-177.431000	 1.785817	-73.014650	 4.335273	-177.957200	 85.408630	 179.564900	 2.404248	 21.800870	-0.137117	-11.067370	 13.936940	 2.202396	-9.244933	 7.430630	-1.518727	-10.725520	 4.182313	-0.319296	-137.878200	 89.545010	-130.535400	 49.400250	 61.182330	-77.509190	-18.193130	 0.400414	-27.989420	-1.394858	-2.008162	-5.444118	-3.812334	 37.924440	-2.927599	-2.450526	 36.184240	 0.754587	-1.378229	 35.397820	-2.634230	 1.562243	 2.529321	-3.139505	-2.172919	 7.148514	 3.414806	 93.960370	 85.944350	 171.476100	-54.127920	 70.462870	 73.380240	-1.402869	-9.578248	 29.983220	-25.070830	-2.834682	 9.659238	 6.437017	 35.671460	-0.771858	 2.830251	 35.756010	-7.813440	-2.350882	 35.473990	 5.254307
-4.900935	-17.010960	 0.080772	-42.327050	 4.276449	 0.039212	 2.800899	-35.236020	 172.965700	-4.434397	-64.553190	-4.285521	 174.535300	 88.346850	-176.780100	-2.353383	 34.021060	-0.125548	 0.951196	-36.851240	-177.369200	 0.720363	-68.217340	 4.015627	-175.786400	 86.760220	 177.656500	 2.406551	 19.970320	-0.173692	-11.179450	 13.923450	 2.081391	-8.846654	 6.847019	-1.464915	-9.968445	 3.588563	-0.348485	-122.039400	 89.368190	-146.409800	 45.358880	 60.984810	-75.014050	-18.633560	 0.308668	-26.650400	-0.890402	-2.033804	-5.442543	-3.812334	 37.924440	-2.927599	-2.450526	 36.184240	 0.754587	-1.378229	 35.397820	-2.634230	 1.945272	 2.099162	-2.964776	-1.712593	 6.715010	 4.585546	 94.365880	 86.048100	 170.834100	-54.008330	 71.346300	 72.675730	-1.176522	-9.076224	 29.095580	-25.390230	-2.824192	 9.651155	 6.437017	 35.671460	-0.771858	 2.830251	 35.756010	-7.813440	-2.350882	 35.473990	 5.254307
-4.895998	-17.011710	 0.097152	-43.887740	 6.171557	-0.514657	 3.729629	-35.619990	 173.719700	-4.188619	-61.989990	-3.239518	 163.594100	 89.422230	-165.501100	-2.365129	 32.306090	-0.085668	 1.812231	-38.121320	-176.787100	-1.206424	-66.028030	 2.719667	-171.720000	 88.157930	 173.156600	 2.407097	 19.272380	-0.187506	-11.086120	 14.343140	 2.341382	-8.381122	 6.747342	-1.297232	-9.369833	 3.305730	-0.350652	-118.625100	 89.303380	-149.840500	 42.801790	 60.805130	-74.296220	-19.080760	 0.226887	-25.717280	-0.408602	-2.055582	-5.439377	-3.812334	 37.924440	-2.927599	-2.450526	 36.184240	 0.754587	-1.378229	 35.397820	-2.634230	 2.223963	 1.866866	-2.840588	-1.412687	 6.511939	 5.198963	 94.521220	 86.097410	 170.612500	-53.646400	 72.196130	 71.679420	-1.196180	-8.647389	 28.084630	-25.903030	-2.821239	 9.633059	 6.437017	 35.671460	-0.771858	 2.830251	 35.756010	-7.813440	-2.350882	 35.473990	 5.254307
-4.894078	-17.012620	 0.109812	-44.418530	 7.621819	-0.674185	 4.394123	-35.979110	 174.057100	-3.686648	-59.845480	-2.211272	 45.834370	 89.776190	-47.292010	-2.369277	 31.635180	-0.070381	 1.645009	-38.394990	-176.587000	-2.340756	-63.788850	 1.462144	-165.638300	 88.946310	 166.566300	 2.407011	 19.404730	-0.184893	-11.296420	 14.718370	 2.265757	-8.206611	 6.990115	-1.264656	-8.922722	 3.368364	-0.328960	-118.515600	 89.335890	-150.123000	 41.071590	 61.097340	-74.942520	-19.592240	 0.022774	-24.633450	 0.586305	-2.086016	-5.429282	-3.812334	 37.924440	-2.927599	-2.450526	 36.184240	 0.754587	-1.378229	 35.397820	-2.634230	 2.207249	 1.970821	-2.691839	-1.161299	 6.439703	 5.011596	 94.679380	 86.142020	 170.381700	-52.264540	 73.388020	 69.445470	-1.360713	-8.108127	 26.569400	-26.811090	-2.824145	 9.598889	 6.437017	 35.671460	-0.771858	 2.830251	 35.756010	-7.813440	-2.350882	 35.473990	 5.254307
-4.894866	-17.013180	 0.118696	-43.994110	 8.583559	-0.693472	 4.448238	-36.291460	 174.145500	-3.026149	-58.453270	-1.540333	 15.805530	 89.418180	-16.918910	-2.369307	 31.630340	-0.070275	 0.998138	-38.491000	-176.607500	-1.787993	-62.262980	 1.428990	-158.002300	 89.316430	 158.954500	 2.406119	 20.406090	-0.165028	-11.628180	 14.917180	 2.219635	-8.147953	 7.231936	-1.526798	-8.557314	 3.552158	-0.301680	-131.138900	 89.548030	-137.686600	 40.976020	 61.187200	-76.633110	-20.289990	 0.067712	-24.800020	 0.732806	-2.085991	-5.429615	-3.812334	 37.924440	-2.927599	-2.450526	 36.184240	 0.754587	-1.378229	 35.397820	-2.634230	 1.978783	 2.023548	-2.916501	-0.977654	 6.524837	 4.699335	 94.388340	 85.918790	 170.559800	-49.508270	 74.996080	 65.607130	-1.145694	-7.677259	 25.364440	-27.768270	-2.825177	 9.562556	 6.437017	 35.671460	-0.771858	 2.830251	 35.756010	-7.813440	-2.350882	 35.473990	 5.254307
-4.899301	-17.016140	 0.124919	-43.265600	 9.195579	-0.676713	 4.229171	-36.285100	 174.107500	-2.357991	-57.478860	-1.091754	 10.789850	 89.133180	-11.651050	-2.374609	 30.709940	-0.049573	 0.777804	-38.209400	-176.854400	-0.429901	-61.309810	 2.452147	-151.187900	 89.464780	 152.730600	 2.401767	 23.125800	-0.110297	-11.842370	 14.830560	 2.215259	-7.958004	 7.349340	-1.749415	-8.083747	 3.678765	-0.275974	-173.068900	 89.716760	-95.908780	 43.021880	 60.772260	-79.137990	-20.314060	 0.277330	-26.499900	 0.320248	-2.034505	-5.440931	-3.812334	 37.924440	-2.927599	-2.450526	 36.184240	 0.754587	-1.378229	 35.397820	-2.634230	 1.726023	 1.941696	-3.098060	-0.783113	 6.556510	 4.073851	 94.072400	 85.667630	 170.768900	-46.839410	 76.304210	 61.614570	-0.824788	-7.333317	 24.763810	-28.280800	-2.816858	 9.545341	 6.437017	 35.671460	-0.771858	 2.830251	 35.756010	-7.813440	-2.350882	 35.473990	 5.254307
-4.905048	-17.020380	 0.128146	-42.684840	 9.426725	-0.796203	 4.061135	-35.912790	 174.256200	-2.111249	-56.813720	-0.996873	 9.045734	 88.985090	-9.862545	-2.374841	 30.668830	-0.048651	 0.893346	-37.678140	-176.942000	 0.373457	-60.819320	 3.237444	-162.276200	 89.180040	 164.300700	 2.398608	 24.438880	-0.083376	-11.814440	 14.570000	 2.432583	-7.571636	 7.310902	-1.828544	-7.525467	 3.673467	-0.257210	 150.559500	 89.690350	-59.627110	 45.628230	 60.058930	-81.702900	-20.040220	 0.575218	-28.339950	-0.326314	-1.983827	-5.452199	-3.812334	 37.924440	-2.927599	-2.450526	 36.184240	 0.754587	-1.378229	 35.397820	-2.634230	 1.584022	 1.850228	-3.358494	-0.612642	 6.448028	 3.840053	 93.824370	 85.497250	 171.005600	-46.130760	 76.884260	 59.736790	-0.608204	-7.152251	 24.864690	-28.188970	-2.804223	 9.546865	 6.437017	 35.671460	-0.771858	 2.830251	 35.756010	-7.813440	-2.350882	 35.473990	 5.254307
-4.911161	-17.025310	 0.129611	-41.772700	 9.513178	-0.680604	 3.783407	-35.622630	 174.195500	-1.667197	-56.343300	-0.812115	 9.774741	 89.114200	-10.490760	-2.374268	 30.773060	-0.050979	 0.579606	-37.153560	-177.086400	 0.860817	-60.418670	 3.439147	-168.450000	 88.846310	 170.633100	 2.399333	 24.159980	-0.089127	-11.759350	 14.278750	 2.248275	-7.146045	 7.347260	-1.888681	-6.896702	 3.741209	-0.231579	 141.747700	 89.673740	-50.948940	 48.099510	 59.424690	-83.857630	-19.183280	 0.672231	-29.394540	-0.331555	-1.959298	-5.456117	-3.812334	 37.924440	-2.927599	-2.450526	 36.184240	 0.754587	-1.378229	 35.397820	-2.634230	 1.444975	 1.800548	-3.486015	-0.464615	 6.556306	 3.803473	 93.854900	 85.528720	 170.993700	-47.131230	 76.861300	 59.964570	-1.095860	-7.138578	 25.154170	-28.315090	-2.791019	 9.546056	 6.437017	 35.671460	-0.771858	 2.830251	 35.756010	-7.813440	-2.350882	 35.473990	 5.254307
-4.916986	-17.030330	 0.129804	-40.954250	 9.507463	-0.538563	 3.602681	-35.217990	 174.072400	-1.109387	-56.089510	-0.477268	 13.222190	 89.397690	-13.733440	-2.375041	 30.633200	-0.047859	 0.046697	-36.540160	-177.216300	 1.269362	-60.129710	 3.419291	-171.550700	 88.594730	 173.752900	 2.399719	 24.007000	-0.092268	-11.534860	 14.014530	 2.137999	-6.566251	 7.463599	-1.957137	-6.209307	 3.900384	-0.199805	 139.262300	 89.671350	-48.534120	 50.365140	 59.091510	-85.721600	-18.482230	 0.696540	-29.786030	-0.166662	-1.952848	-5.457281	-3.812334	 37.924440	-2.927599	-2.450526	 36.184240	 0.754587	-1.378229	 35.397820	-2.634230	 1.322447	 1.754398	-3.509572	-0.330756	 6.821226	 3.519635	 93.859340	 85.564960	 171.047900	-49.419140	 76.327720	 61.976990	-1.539839	-7.092686	 25.623860	-28.047720	-2.776943	 9.556162	 6.437017	 35.671460	-0.771858	 2.830251	 35.756010	-7.813440	-2.350882	 35.473990	 5.254307
-4.922415	-17.034580	 0.128943	-40.291810	 9.397747	-0.436970	 3.523758	-34.869290	 173.996300	-0.618715	-56.052320	-0.134818	 24.372960	 89.698680	-24.668000	-2.372695	 31.051480	-0.057216	-0.326003	-36.063390	-177.291600	 1.752002	-60.040700	 3.581120	-173.225500	 88.376110	 175.533400	 2.400305	 23.769200	-0.097149	-11.155810	 13.849970	 2.209379	-5.816932	 7.614856	-2.003408	-5.412303	 4.106644	-0.164353	 129.208500	 89.610830	-38.504690	 52.456520	 58.667270	-87.020900	-17.733270	 0.770032	-29.735760	-0.173927	-1.950898	-5.458956	-3.812334	 37.924440	-2.927599	-2.450526	 36.184240	 0.754587	-1.378229	 35.397820	-2.634230	 1.231047	 1.716901	-3.604608	-0.196170	 7.139338	 3.089662	 93.747380	 85.555780	 171.277300	-51.634380	 75.631640	 64.309550	-1.609754	-7.037915	 26.314290	-27.444150	-2.759817	 9.574479	 6.437017	 35.671460	-0.771858	 2.830251	 35.756010	-7.813440	-2.350882	 35.473990	 5.254307
